Coordinates
version=1
nRows=18
nColumns=22
inDegrees=yes

Units are S.I. units (second, meters, Newtons, ...)
If the header above contains a line with 'inDegrees', this indicates whether rotational values are in degrees (yes) or radians (no).

endheader
time	pelvis_tilt	pelvis_list	pelvis_rotation	pelvis_tx	pelvis_ty	pelvis_tz	hip_flexion_r	hip_adduction_r	hip_rotation_r	knee_angle_r	ankle_angle_r	subtalar_angle_r	hip_flexion_l	hip_adduction_l	hip_rotation_l	knee_angle_l	ankle_angle_l	subtalar_angle_l	lumbar_extension	lumbar_bending	lumbar_rotation
      1.84000000	      3.87432620	      0.91591256	     45.88679976	      0.64276521	      0.92256678	      0.79114590	     23.92346099	     -3.37121798	      3.38632397	    -40.29400261	     -0.75717531	      7.91816443	     -2.22643460	      5.77530349	     -9.83931661	    -16.05025944	     12.18215673	    -12.75536318	     -9.24238725	     -2.48871967	     -4.66265306
      1.85000000	      3.84285781	      0.91937671	     47.09646874	      0.64739587	      0.92185875	      0.78439341	     23.75569381	     -3.34672278	      3.31709751	    -36.83279692	     -0.91643592	      8.17195819	     -2.72516399	      5.73437577	     -8.59422485	    -16.13924498	     12.49086033	    -12.71440494	     -9.18249253	     -2.52567871	     -5.00789832
      1.86000000	      3.79132249	      0.91475399	     48.27345692	      0.65205739	      0.92099059	      0.77765364	     23.52495769	     -3.32369844	      3.30686255	    -33.25701634	     -1.12124275	      8.55236714	     -3.15220815	      5.68252482	     -7.37623844	    -16.33125993	     12.84269788	    -12.68057629	     -9.10521894	     -2.58298125	     -5.29051711
      1.87000000	      3.68048408	      0.86565321	     49.44299341	      0.65672230	      0.91987456	      0.77092363	     23.30562473	     -3.32397987	      3.31294347	    -29.61576888	     -1.37964986	      8.92297243	     -3.43325947	      5.62612913	     -6.18842047	    -16.65749191	     13.26563536	    -12.65323458	     -8.95000794	     -2.66932561	     -5.56307562
      1.88000000	      3.60782269	      0.86075450	     50.56369143	      0.66149113	      0.91873584	      0.76410477	     22.93620000	     -3.32024521	      3.38843168	    -25.91015153	     -1.56701308	      9.57714696	     -3.79070002	      5.56157416	     -5.08152074	    -16.97373337	     13.68906300	    -12.59660082	     -8.85256843	     -2.76166422	     -5.79064233
      1.89000000	      3.47564910	      0.80338335	     51.69569045	      0.66618353	      0.91732943	      0.75728360	     22.62398459	     -3.35167373	      3.43914006	    -22.25473842	     -1.84355524	     10.07682535	     -3.99345219	      5.50122716	     -3.97841451	    -17.42827979	     14.18744088	    -12.55233719	     -8.67989741	     -2.86957955	     -5.97434050
      1.90000000	      3.38466456	      0.80336590	     52.76178716	      0.67101979	      0.91592544	      0.75034547	     22.18710170	     -3.37912269	      3.56353646	    -18.65878784	     -2.03045712	     10.90580601	     -4.32525391	      5.44257055	     -2.97097368	    -17.80551835	     14.67041153	    -12.47257917	     -8.57207269	     -2.98799020	     -6.11772314
      1.91000000	      3.27722108	      0.77725340	     53.82614784	      0.67585719	      0.91435107	      0.74334136	     21.78150026	     -3.41797403	      3.65765605	    -15.23825762	     -2.22169804	     11.61414910	     -4.60723799	      5.37050583	     -2.02397209	    -18.22964157	     15.19814983	    -12.40318007	     -8.42995921	     -3.10142636	     -6.24575407
      1.92000000	      3.18272736	      0.75694582	     54.86782990	      0.68072608	      0.91269724	      0.73629633	     21.38425757	     -3.45227567	      3.75223888	    -12.06975816	     -2.40917342	     12.31295543	     -4.90206925	      5.28118451	     -1.16053312	    -18.66970056	     15.72244097	    -12.33374970	     -8.30601792	     -3.21005185	     -6.33637788
      1.93000000	      3.11057501	      0.76299409	     55.85515240	      0.68569023	      0.91103167	      0.72918418	     20.99869576	     -3.47261768	      3.88681420	     -9.24437597	     -2.56704321	     13.11766659	     -5.28660560	      5.18345045	     -0.38475217	    -19.02476787	     16.24754922	    -12.25348272	     -8.21369385	     -3.31853465	     -6.37113829
      1.94000000	      3.05357139	      0.77803554	     56.80367055	      0.69071565	      0.90934768	      0.72203833	     20.67096071	     -3.47727021	      4.04766759	     -6.84713370	     -2.68456908	     13.91580985	     -5.71322191	      5.06679925	      0.29069843	    -19.34358675	     16.76204287	    -12.17727987	     -8.14016799	     -3.42201990	     -6.37579616
      1.95000000	      3.01575291	      0.83878778	     57.69211011	      0.69579621	      0.90771194	      0.71490033	     20.40179416	     -3.47560225	      4.27353011	     -4.97455259	     -2.71851819	     14.75986690	     -6.21209317	      4.95101124	      0.85254585	    -19.63148952	     17.27698926	    -12.10115583	     -8.13223485	     -3.53928512	     -6.32168887
      1.96000000	      3.00946428	      0.87562310	     58.55208140	      0.70091845	      0.90610747	      0.70769092	     20.23119790	     -3.42775509	      4.50553393	     -3.63686383	     -2.71418443	     15.42479640	     -6.73136078	      4.78142541	      1.32339142	    -19.88183359	     17.72341806	    -12.05577105	     -8.11610600	     -3.60307546	     -6.27520765
      1.97000000	      3.02106116	      0.92342712	     59.35174833	      0.70610688	      0.90457635	      0.70045521	     20.15206976	     -3.35241933	      4.83316374	     -2.86652273	     -2.65620650	     15.93179948	     -7.29489356	      4.59604557	      1.70810757	    -20.09153178	     18.13422106	    -12.03420614	     -8.12262759	     -3.65386427	     -6.20252441
      1.98000000	      3.05094159	      0.98208546	     60.08940490	      0.71136763	      0.90313490	      0.69317132	     20.15669066	     -3.24564763	      5.26725587	     -2.65142484	     -2.55285152	     16.25156700	     -7.89446640	      4.39570077	      2.00908764	    -20.27935302	     18.48693513	    -12.04250509	     -8.14807426	     -3.68958913	     -6.10253902
      1.99000000	      3.06375472	      0.99148067	     60.77967883	      0.71670212	      0.90169155	      0.68582574	     20.29893109	     -3.10712372	      5.82913023	     -2.93893941	     -2.43658289	     16.29215886	     -8.43794385	      4.18168095	      2.26095754	    -20.47840405	     18.77027795	    -12.05624615	     -8.10528788	     -3.70931344	     -5.99931448
      2.00000000	      3.12000838	      1.02423741	     61.43705125	      0.72212633	      0.90040206	      0.67835972	     20.43735956	     -2.91937099	      6.46845859	     -3.63330224	     -2.35163659	     16.28050364	     -9.04044240	      3.93503676	      2.50022882	    -20.66505473	     18.99069195	    -12.09521840	     -8.09927036	     -3.69510232	     -5.89995611
      2.01000000	      3.19705027	      1.06125182	     62.06184547	      0.72766652	      0.89922336	      0.67076131	     20.57150014	     -2.68473522	      7.21335382	     -4.63828097	     -2.28489673	     16.17127854	     -9.65465309	      3.66445185	      2.71544063	    -20.87300368	     19.12153565	    -12.16104408	     -8.09103470	     -3.65851551	     -5.80257309
